#!OML:ASF F:\VICON\USERDATA\INSTALL\rory3\rory3.ASF
:FULLY-SPECIFIED
:DEGREES
22
root -0.35573909580559204 18.222401866345656 8.676139348944345 5.97857651179376 -4.006111514066696 0.9430885521116359
lfemur 19.004923251303445 -2.6642703062648314 -27.138572175902965
ltibia 25.698329318519708
lfoot 14.981758647660024 -15.376283077120638
ltoes -19.494592730833322
rfemur -46.700952796073324 0.8964985739911728 24.36236556668794
rtibia 46.2096194884395
rfoot 2.5994545559490474 0.2888017861979515
rtoes -12.105925665886467
lowerback 13.593166415247495 -1.0808149380832948 -3.0547333215051395
upperback -2.2851751385175403 -1.691567153922946 2.0320452272835037
thorax -9.82558861276319 -0.6594211617351895 4.236781725009373
lowerneck -20.644062572287385 -2.1176705032500776 -2.0591092210535633
upperneck 16.549908710905243 -2.7844438137645717 2.356586834862223
head 8.512269804082056 -1.1250298708110766 0.7059460493680286
lclavicle -2.046597858171054e-15 -3.0262573510708208e-15
lhumerus -31.23105627236232 -22.726039536273476 96.56214627650587
lradius 122.49683023691031
lwrist 33.73362938043025
lhand -23.915012706018103 1.6302963172522724
lfingers nan
lthumb 2.49043977274527 31.535770284000012
rclavicle -2.061463092814958e-15 -3.0174209740500054e-15
rhumerus -65.95915692192997 2.928530352352496 -93.9492120440951
rradius 109.47339958612365
rwrist -11.83141377045633
rhand -15.949308002337856 40.301080997259895
rfingers nan
rthumb 10.448565805407664 10.593169310011087
23
root -0.2858382115230339 18.353854427714662 9.44618821624718 5.742924145224004 -4.023632658912762 1.974648347997359
lfemur 20.290208183239493 -4.1154244520296706 -28.531017940129907
ltibia 29.682718320237495
lfoot 14.111132509556647 -13.196299467799578
ltoes -17.521357074872032
rfemur -42.927602930154634 -0.06735247413797107 24.363401980654668
rtibia 34.98567935994193
rfoot 2.989647586295919 -1.8044762130618324
rtoes -15.006331853726905
lowerback 13.621153870941834 -1.1694093959905647 -3.471789754584221
upperback -2.030117722249112 -1.983366934445569 1.8856009877007895
thorax -9.572156925893719 -0.7958235164921761 4.4659899424880605
lowerneck -20.65719960622313 -2.066725074379529 -2.048630177331979
upperneck 16.506189318770417 -2.5839568323370177 2.256477384072686
head 8.481747092282287 -1.0696566523110047 0.6992963195766824
lclavicle -2.0416467073816896e-15 -3.021636464013378e-15
lhumerus -32.1466131822224 -23.426458081081208 96.67819127314405
lradius 121.59544752431913
lwrist 33.5991037967347
lhand -24.534254839335322 1.5953372237035535
lfingers nan
lthumb 1.910163341512411 31.619054987227717
rclavicle -2.0597605529449756e-15 -3.0120669530040973e-15
rhumerus -66.27471474920948 0.9689723789796902 -92.56645268857451
rradius 109.7704680258182
rwrist -11.29319470163086
rhand -15.979355880172806 40.29158833725094
rfingers nan
rthumb 10.536233315481262 10.53832065100235
24
root -0.22870393716411855 18.337695857921297 10.572372548057125 5.052919814990236 -3.967540705878348 2.1208618778351918
lfemur 19.00198328717829 -4.8592120101137315 -28.57555628751129
ltibia 37.438404039036996
lfoot 13.57677242888642 -11.569175050896526
ltoes -11.659474025590406
rfemur -40.462733882425084 -0.44304921785645135 25.02670691128114
rtibia 29.60821474671041
rfoot 3.992956064255705 -4.698122885987312
rtoes -10.818760474351325
lowerback 13.8986899685778 -1.118332002779094 -3.23025783050456
upperback -1.5873362826589617 -1.9412500401029589 1.7320830717103008
thorax -9.14417789673769 -0.7937322214440481 4.305306457283595
lowerneck -20.809147193019825 -2.2770539854832204 -2.1718146864581613
upperneck 15.947523268015434 -2.8114523516605487 2.373912096957218
head 8.33248725773485 -1.176219964693432 0.7493668910925957
lclavicle -2.0704595641133505e-15 -3.045214251933126e-15
lhumerus -33.75869354895231 -22.49900186791915 97.1605316890163
lradius 118.99005677986993
lwrist 33.84351145723025
lhand -24.8634682483538 1.8898956676647607
lfingers nan
lthumb 1.6355622113482873 31.991008249087546
rclavicle -2.1063250804810605e-15 -3.0474765126487163e-15
rhumerus -65.74512451515061 -0.3188486854356416 -91.42440577591411
rradius 109.6736459926278
rwrist -10.574801690282545
rhand -16.063878336860807 40.19872259962625
rfingers nan
rthumb 10.536718602035622 10.454512331493659
25
root -0.197697975109359 18.189016735045204 11.704132755393923 4.0991793685267535 -4.224416840831333 1.367817878099872
lfemur 15.68859340000306 -4.349212730667572 -27.19245452245335
ltibia 48.10447910003
lfoot 12.115733391615123 -11.299345121682906
ltoes -7.256792166509642
rfemur -38.888044423241794 0.22553398163490368 26.172080805737252
rtibia 31.286380827793412
rfoot 3.612834370154263 -3.192684258427717
rtoes -2.0364255452237643
lowerback 14.424967135298973 -0.994639546557701 -2.438694491702594
upperback -1.120823140114611 -1.6951123850666905 1.829131500802555
thorax -9.130964305234562 -0.705603031656383 3.8147347611607207
lowerneck -20.638546284112145 -2.3494153855651296 -2.237751674807083
upperneck 15.48705898778162 -2.89087318065238 2.371062230029279
head 8.121484869509281 -1.24965443870888 0.7426319544493566
lclavicle -2.0292167894521906e-15 -3.011816506105789e-15
lhumerus -35.778431155890075 -21.381749441127976 97.6009841560079
lradius 115.0542378172445
lwrist 34.136023403724415
lhand -25.047017725307022 1.7320941380696948
lfingers nan
lthumb 1.5778620913385735 31.911681748146087
rclavicle -2.104760360210218e-15 -3.0473395818450317e-15
rhumerus -64.33320732997622 -1.146488009902372 -90.81542722095918
rradius 109.320526696368
rwrist -9.383790704827831
rhand -16.114939387435168 39.821293081398956
rfingers nan
rthumb 10.449252309493003 10.055540677132385
26
root -0.18200503539266696 17.939077178906693 13.851505313460477 3.290025312214074 -5.573772650055634 -0.087337153371017
lfemur 11.075950191338888 -2.202883576720364 -24.092545092129427
ltibia 60.73261918698675
lfoot 9.536120814955499 -10.528612008678145
ltoes -6.119916729440952
rfemur -37.72646496999894 1.7583832106912207 27.80521576877419
rtibia 37.779174511266376
rfoot -0.08250408336818893 0.25274353354739176
rtoes 6.283586674418837
lowerback 15.11771910529675 -0.4327897066071259 -1.1703460077220653
upperback -0.6729493932648904 -0.7699159319164735 2.084936200856487
thorax -9.407513176814799 -0.32383561051757725 3.1627020411214435
lowerneck -20.3943506836241 -2.4203079028338372 -2.099883256420335
upperneck 15.279040229838705 -3.008989152394809 2.222312121003638
head 8.083481133622014 -1.3096251371764742 0.6634623289475208
lclavicle -2.0573513332618605e-15 -3.038751405967455e-15
lhumerus -37.25632935523247 -20.329741596229866 98.01901367340452
lradius 110.05321498601184
lwrist 34.577939290030486
lhand -25.231059488171738 1.891783538492986
lfingers nan
lthumb 1.397826750610104 32.08947584414408
rclavicle -2.0729956912280777e-15 -3.0289997879308555e-15
rhumerus -62.26203103695936 -1.2609733980523732 -90.73534391843724
rradius 108.78448523974515
rwrist -8.718608021180405
rhand -16.040349515326394 39.60020081901261
rfingers nan
rthumb 10.581903716423188 9.929519296045305
27
root -0.19850540917283288 17.602185090820043 15.5688466103254 2.4069848728633545 -7.392682773578468 -1.0982785639686121
lfemur 6.038132297161605 1.0135617358037694 -20.45679800077858
ltibia 73.42789043853577
lfoot 6.8278699164289485 -7.953335103430176
ltoes -6.197441652326489
rfemur -35.59497120835143 3.3624066206329704 29.692218708602155
rtibia 45.58103748828562
rfoot -7.063139237303295 -1.148649644791444
rtoes 8.519704689110904
lowerback 15.95968643944161 0.24091041222226273 -0.4181948164239715
upperback -0.1948883753506243 0.24486957847689328 2.2829028719709346
thorax -9.689419874243399 0.1493367091051122 2.6024125153915603
lowerneck -20.84929017023179 -2.6357354345209485 -1.801005254905708
upperneck 15.157659187269791 -3.3027130683471766 2.104144606328927
head 8.088030879234037 -1.4434369525120667 0.5690735403749292
lclavicle -2.0558258720726603e-15 -3.039928412303246e-15
lhumerus -38.73720364899118 -19.725979201148235 98.47608178035209
lradius 104.94625305574655
lwrist 35.16902037363103
lhand -25.3480081739661 1.99015930327883
lfingers nan
lthumb 1.1794042004680536 32.20649276566726
rclavicle -2.059739214910364e-15 -3.0260755329084786e-15
rhumerus -59.803397254984404 -0.8382846263487629 -91.09914677722549
rradius 108.18252367929445
rwrist -8.191401475489915
rhand -16.055432431839442 39.36763025145468
rfingers nan
rthumb 10.640545941467872 9.804896848749767
28
root -0.23940569953908067 17.23731017475162 16.28640930014757 1.7049451266221993 -7.945740301761099 -1.7340404542956263
lfemur 0.26855188420623577 4.258445623341851 -16.492030435410516
ltibia 85.0644612601841
lfoot 3.569552528868059 -6.011299716715235
ltoes -6.121363703665501
rfemur -32.20655805401928 4.326822418348396 31.204551129415712
rtibia 51.87110080198145
rfoot -13.324269681504864 -7.680026460673464
rtoes 5.77266402011926
lowerback 16.743692398325077 0.5363543743937558 0.03585679228638261
upperback 0.24046319198346144 0.8500266088040767 2.40052846861491
thorax -9.729367484064692 0.47339220616812105 2.3691978239109925
lowerneck -21.42612162190272 -2.899392363943091 -1.634816861145847
upperneck 14.632247855881483 -3.6784909638615373 2.1782762814695005
head 7.971560304304406 -1.6102847797112005 0.5556208810148975
lclavicle -2.064848241357032e-15 -3.0506277145184277e-15
lhumerus -40.584103104446285 -19.380872226376695 99.03267227832947
lradius 101.07336607864634
lwrist 35.75546301123774
lhand -25.125815315925372 2.0511201544920015
lfingers nan
lthumb 1.2740225232621771 32.24829885981081
rclavicle -2.0547168417847652e-15 -3.030116516596272e-15
rhumerus -56.698271378987116 0.3174867774121175 -91.78453752023766
rradius 107.67418573986122
rwrist -8.355930661852463
rhand -15.933598156388891 39.44330309959984
rfingers nan
rthumb 10.702202187447291 9.88686406039758
